<svg id="svg" xmlns="http://www.w3.org/2000/svg" viewBox="0 0 1200 800">
    <path d="M893.26 524.06c11.96-3.46 17.16-12.97 11.23-20.72a405.575 405.575 0 0 0-15.66-19.23c49.65-28.92 99.3-57.83 148.97-86.72.58-1.47-56.43-26.53-92.39.8-5.56 3.87-9.79 8.96-13.38 14.27-5.35-17.75-17.05-33.77-32.07-42.42-13.11-7.59-26.28-8.37-37.13-4.06l.21.09c28.55 12.24 45.7 49.93 35.14 76.02a41.709 41.709 0 0 1-3.68 7.42c-6.57-4.66-10.31-3.9-13.28-1.75-3.38 2.48-4.89 6.12-.29 14.86a42.684 42.684 0 0 1-8.54 3.64c-71.16-72.7-164.25-111.9-259.1-117.53.31-.89.62-1.79.91-2.7 9.67 2.76 20.11 2.48 31.06-.08-.54-.26-1.08-.52-1.61-.8-15.71-8.23-25.21-23.49-25.6-41.09 11.34-1.62 14.14-5.52 14.61-10.43.41-4.3-1.08-8.39-9.61-11.51 1.42-2.89 3.14-5.76 5.23-8.55 19.62-27.89 69.18-35.95 100.5-15.71.08.05.15.1.23.15-2.22-13.21-11.4-25.57-27.58-33.46-18.49-9.06-42.34-10.02-63.55-3.4 3.23-6.99 5.86-14.43 6.44-22.37.07-.58.11-1.16.16-1.74 6.66.02 12.92-.68 17.93-3.58 8.88-4.77 12.56-21.54.5-40.18-10-16.07-32.35-33.59-61.42-37.23-6.85-5.46-11.81-8.28-12.07-7.85.04 2.38.07 4.77.11 7.15-.74-.02-1.48-.04-2.21-.04-.04-2.38-.09-4.76-.13-7.13-.26-.46-5.31 2.37-12.19 7.91-27.57 3.71-49.05 20.06-58.62 35.58-12.07 18.67-7.74 36.18 2.26 41.64 4.85 2.84 10.56 4.03 16.54 4.48.02.14.03.28.05.41.86 8.01 3.76 15.54 7.25 22.61-21.53-6.84-45.56-6.18-63.93 2.81-16.08 7.82-24.93 20.31-26.68 33.8.08-.05.15-.1.23-.15 31.03-20.3 81.24-11.61 101.85 16.39 2.19 2.82 4.02 5.7 5.54 8.6-8.44 3.18-9.79 7.32-9.23 11.65.64 4.95 3.59 8.88 14.99 10.4.21 17.7-8.76 33.21-24.18 41.86-.52.29-1.05.57-1.58.84 11.05 2.41 21.49 2.46 31.06-.51.23.66.47 1.3.71 1.94-96.44 4.34-191.59 43.34-264.3 117.07 3.52-8.08 1.71-11.74-1.84-14.34-3.27-2.38-7.25-3.33-13.9 1.24a48.382 48.382 0 0 1-4.35-7.91c-12.8-27.69 3.47-66.1 32.51-77.93.07-.03.14-.05.22-.08-11.5-4.83-25.2-4.48-38.59 2.9-15.33 8.41-26.94 24.53-31.72 42.72-4.09-5.69-8.83-11.17-14.95-15.45-39.39-29.98-99.94-7.13-99.4-5.64 51.84 30.76 103.66 61.54 155.48 92.31a406.72 406.72 0 0 0-15.45 18.81c-5.99 7.74-.31 17.6 12.31 21.52 6.34 2.03 12.67 4.06 19.01 6.1 1.36.42 2.74.76 4.12 1.05-6.56 7.83-12.88 16-18.91 24.54 1.09.37 2.18.73 3.26 1.1a405.574 405.574 0 0 0-19.79 23.7c-5.99 7.74-.31 17.6 12.31 21.52 6.34 2.03 12.67 4.06 19.01 6.1 12.63 3.92 26.55 1.9 31.2-4.17 127.28-166.56 379.19-167.23 507.66-1.08 4.7 6.05 18.13 8.43 30.11 4.97 6.01-1.8 12.02-3.6 18.03-5.41 11.96-3.46 17.16-12.97 11.23-20.72-6.32-8.26-12.89-16.2-19.68-23.8 1.02-.32 2.04-.64 3.06-.97a374.747 374.747 0 0 0-19.69-25.74c2.36-.25 4.74-.69 7.06-1.37 5.97-1.82 11.98-3.62 17.99-5.42zM673.27 410.72c-43.34-10.14-88.24-12.3-132.27-6.48 43.92-6.94 89.07-4.78 132.27 6.48zm157.94 96.98a363.52 363.52 0 0 0-5.52-4.18c.61 0 1.21.02 1.81.06 1.25 1.36 2.48 2.73 3.71 4.12zM642.2 429.5c2.65-10.8 12.51-18.23 22.35-16.14 9.5 2.01 14.16 11.86 11.12 22.02a397.13 397.13 0 0 0-33.47-5.88zm45.6 8.74c5.18-9.26 15.89-14.4 24.91-11.11 8.46 3.07 11.48 12.09 7.95 20.94a398.03 398.03 0 0 0-32.86-9.83zm45.64 14.52c7.15-6.72 17.64-9.2 25.41-5.04 7 3.75 8.94 11.35 5.8 18.66-10.24-5-20.65-9.54-31.21-13.62zm60.45 19.07c4.63 3.77 9.17 7.7 13.62 11.77.35 2.19.11 4.49-.69 6.77a387.429 387.429 0 0 0-27.54-16.43c4.76-2.07 9.92-2.84 14.61-2.11zm-243.05-43.97c-1.82-11.06 4.51-20.87 14.53-21.53 10.16-.68 18.66 8.38 19.14 19.71-11.24.13-22.47.74-33.67 1.82zm-45.63 7.05c-3.08-10.19 1.35-19.9 10.74-21.84 9.77-2.03 19.79 5.38 22.81 16.14a398.886 398.886 0 0 0-33.55 5.7zm-45.17 12.48c-3.49-8.9-.64-17.76 7.67-20.73 8.91-3.2 19.67 1.91 25.23 11.08a396.491 396.491 0 0 0-32.9 9.65zm-86.59 41.92c-.33-.97-.56-1.93-.7-2.89 5.76-5.42 11.67-10.58 17.73-15.48 3.37.13 6.85.91 10.18 2.31a392.539 392.539 0 0 0-27.21 16.06zm42.4-23.8c-1.97-4.7-1.93-9.42.14-13.18 3.72-2.44 7.47-4.78 11.27-7.05 6.59-.83 14 1.79 19.67 6.84-10.51 4-20.88 8.47-31.08 13.39zm199.32-59.09c10.07.71 16.65 10.6 15 21.66-11.18-1.14-22.4-1.81-33.63-2.01.18-11.34 8.46-20.37 18.63-19.65zm-24.4-209.7c.79 50.44 1.58 100.87 2.34 151.31-.48 0-.97-.01-1.45-.01-.96-50.4-1.9-100.81-2.84-151.21.65-.02 1.3-.05 1.95-.09z" fill="#ebecea" stroke="none" stroke-miterlimit="10" /></svg>
