<svg id="black" xmlns="http://www.w3.org/2000/svg" viewBox="0 80 1200 700">
    <style>
        .st0 {
            enable-background: new;
            fill: #fff;
        }

    </style>
    <g class="st0">
        <path d="M259.2 322.5c2.9-.6 8.8-1.1 14.4-1.1 6.8 0 11 .7 14.6 2.8 3.5 1.8 5.9 5.2 5.9 9.8 0 4.4-2.6 8.5-8.1 10.5v.2c5.7 1.5 9.9 5.8 9.9 12.1 0 4.5-2.1 8.1-5.1 10.5-3.6 2.9-9.6 4.5-19.5 4.5-5.5 0-9.6-.4-12.1-.7v-48.6zm11.1 19h3.6c5.9 0 9-2.5 9-6.1 0-3.8-2.9-5.7-7.9-5.7-2.4 0-3.8.2-4.7.3v11.5zm0 21.9c1.1.2 2.4.2 4.3.2 5.1 0 9.6-2 9.6-7.2 0-5-4.4-6.9-10-6.9h-3.8v13.9zM303.6 321.8h11.2v40.1h19.7v9.4h-30.9v-49.5zM352.6 358.6l-3.5 12.7h-11.6l15.1-49.5h14.6l15.4 49.5h-12.1l-3.8-12.7h-14.1zm12.5-8.3l-3.1-10.5c-.8-2.9-1.7-6.6-2.5-9.5h-.2c-.7 2.9-1.5 6.7-2.3 9.5l-3 10.5h11.1zM425.6 370c-2 1-6.7 2.1-12.6 2.1-17.1 0-26-10.7-26-24.8 0-16.9 12.1-26.2 27-26.2 5.8 0 10.2 1.1 12.2 2.2l-2.3 8.8c-2.2-1-5.4-1.9-9.4-1.9-8.8 0-15.7 5.4-15.7 16.4 0 9.9 5.8 16.2 15.8 16.2 3.4 0 7.1-.7 9.4-1.6l1.6 8.8zM432.9 321.8H444v21.9h.2c1.1-1.9 2.3-3.7 3.4-5.4l11.2-16.5h13.8l-16.4 21.1 17.2 28.4h-13L448.2 350l-4.2 5.2v16.2h-11.1v-49.6z" />
    </g>
    <path d="M619.1 432.9l-23.2-34.5C586.5 385 580.1 375 573 364h-.8c-5.4 11.1-11.7 21.1-20 34.2l-21.3 34.6h-66.3l74.4-96.6-71.7-94.2h66.9l22.5 34.7c7.5 11.6 13.1 21 19.2 31.7h1c6.2-12.1 11-20.6 17.6-31.6l21.6-34.8h66.5L610 335.1l76.4 97.7h-67.3z" fill="#e80707" />
    <path d="M619.1 432.9l-23.2-34.5C586.5 385 580.1 375 573 364h-.8c-5.4 11.1-11.7 21.1-20 34.2l-21.3 34.6h-66.3l74.4-96.6-71.7-94.2h66.9l22.5 34.7c7.5 11.6 13.1 21 19.2 31.7h1c6.2-12.1 11-20.6 17.6-31.6l21.6-34.8h66.5L610 335.1l76.4 97.7h-67.3z" fill="none" stroke="#000" stroke-miterlimit="10" />
    <g class="st0">
        <path d="M712.3 366c-1.6.8-5.4 1.7-10.2 1.7-13.8 0-20.9-8.6-20.9-20 0-13.6 9.7-21.1 21.8-21.1 4.7 0 8.2.9 9.8 1.8l-1.8 7.1c-1.8-.8-4.4-1.5-7.6-1.5-7.1 0-12.7 4.3-12.7 13.2 0 8 4.7 13 12.7 13 2.8 0 5.7-.5 7.5-1.3l1.4 7.1zM747.5 366c-1.6.8-5.4 1.7-10.2 1.7-13.8 0-20.9-8.6-20.9-20 0-13.6 9.7-21.1 21.8-21.1 4.7 0 8.2.9 9.8 1.8l-1.8 7.1c-1.8-.8-4.4-1.5-7.6-1.5-7.1 0-12.7 4.3-12.7 13.2 0 8 4.7 13 12.7 13 2.8 0 5.7-.5 7.5-1.3l1.4 7.1zM777.1 350.3h-14.7v9.5h16.4v7.4h-25.4v-39.9H778v7.4h-15.5v8.3h14.7v7.3zM785.1 327.3h9v32.3H810v7.6h-24.9v-39.9zM815.3 327.3h9v32.3h15.9v7.6h-24.9v-39.9zM869.2 350.3h-14.7v9.5h16.4v7.4h-25.4v-39.9H870v7.4h-15.5v8.3h14.7v7.3zM877.1 367.1v-39.9h10.5l8.3 14.6c2.4 4.2 4.7 9.2 6.5 13.7h.2c-.6-5.3-.7-10.6-.7-16.7v-11.6h8.3v39.9h-9.4l-8.5-15.4c-2.4-4.3-5-9.4-6.9-14.1h-.2c.3 5.3.4 10.9.4 17.4v12h-8.5zM947.1 366c-1.6.8-5.4 1.7-10.2 1.7-13.8 0-20.9-8.6-20.9-20 0-13.6 9.7-21.1 21.8-21.1 4.7 0 8.2.9 9.8 1.8l-1.8 7.1c-1.8-.8-4.4-1.5-7.6-1.5-7.1 0-12.7 4.3-12.7 13.2 0 8 4.7 13 12.7 13 2.8 0 5.7-.5 7.5-1.3l1.4 7.1zM976.7 350.3H962v9.5h16.4v7.4H953v-39.9h24.6v7.4h-15.5v8.3h14.7v7.3z" />
    </g>
</svg>
