<svg id="Layer_1" xmlns="http://www.w3.org/2000/svg" viewBox="240 100 1200 800">
    <style>


        .st0,
        .st1 {
            stroke: #2a252c;
            stroke-width: 6;
            stroke-miterlimit: 10
        }
        .st0 {
            stroke: #fab131;
            fill: transparent;
            
        }

    </style>
    <g id="all-in">
        <path class="st0" d="M308.55 184.96l-.22-.08.06.22 17.75 72.35-45.45 6.6 35.81 28.05 97.77-88.78-24.48-38.34-10.93 44.6z" />
        <ellipse transform="rotate(-42.243 291.558 168.346)" class="st0" cx="291.58" cy="168.36" rx="22.74" ry="20.58" />
        <ellipse transform="rotate(-42.243 265.677 249.228)" class="st0" cx="265.7" cy="249.24" rx="13.96" ry="12.63" />
        <ellipse transform="rotate(-42.243 380.094 145.332)" class="st0" cx="380.12" cy="145.34" rx="13.96" ry="12.63" />
    </g>
    <g id="michael-kingText">
        <path class="st1" d="M427.69 275.62c-.32-6.09-.71-13.41-.65-18.86h-.19c-1.49 5.12-3.31 10.56-5.51 16.59l-7.71 21.19h-4.28l-7.06-20.8c-2.07-6.16-3.82-11.79-5.05-16.98h-.13c-.13 5.44-.45 12.77-.84 19.31l-1.17 18.73h-5.38l3.05-43.68h7.19l7.45 21.13c1.81 5.38 3.31 10.17 4.41 14.71h.18c1.1-4.41 2.66-9.2 4.6-14.71l7.78-21.13h7.19l2.72 43.68h-5.51l-1.09-19.18zM448.62 251.12v43.68h-5.64v-43.68h5.64zM488.99 293.37c-2.07 1.04-6.22 2.07-11.54 2.07-12.31 0-21.58-7.78-21.58-22.1 0-13.67 9.27-22.94 22.81-22.94 5.44 0 8.88 1.17 10.37 1.94l-1.36 4.6c-2.14-1.04-5.18-1.81-8.81-1.81-10.24 0-17.04 6.55-17.04 18.02 0 10.69 6.16 17.56 16.78 17.56 3.43 0 6.93-.71 9.2-1.81l1.17 4.47zM501.7 251.12v18.27h21.13v-18.27h5.7v43.68h-5.7v-20.48H501.7v20.48h-5.64v-43.68h5.64zM545.38 281.06l-4.54 13.74h-5.83l14.84-43.68h6.8l14.9 43.68h-6.03l-4.67-13.74h-15.47zm14.32-4.41l-4.28-12.57c-.97-2.85-1.62-5.44-2.27-7.97h-.13c-.65 2.59-1.36 5.25-2.2 7.91l-4.28 12.64h13.16zM600.59 274.32h-16.98v15.75h18.92v4.73h-24.56v-43.68h23.59v4.73h-17.95v13.8h16.98v4.67zM609.86 251.12h5.64v38.95h18.66v4.73h-24.3v-43.68zM654.19 251.12h5.64v21.06h.19c1.17-1.69 2.33-3.24 3.43-4.67l13.35-16.4h7l-15.81 18.53 17.04 25.14h-6.67l-14.39-21.45-4.15 4.8v16.65h-5.64v-43.66zM694.95 251.12v43.68h-5.64v-43.68h5.64zM704.8 294.8v-43.68h6.16l14 22.1c3.24 5.12 5.77 9.72 7.84 14.19l.13-.06c-.52-5.83-.65-11.15-.65-17.95v-18.27h5.31v43.68h-5.7l-13.87-22.16c-3.05-4.86-5.96-9.85-8.17-14.58l-.19.06c.32 5.51.45 10.76.45 18.02v18.66h-5.31zM780.69 292.85c-2.53.91-7.52 2.4-13.42 2.4-6.61 0-12.05-1.69-16.33-5.77-3.76-3.63-6.09-9.46-6.09-16.27.06-13.03 9.01-22.55 23.65-22.55 5.05 0 9.01 1.1 10.89 2.01l-1.36 4.6c-2.33-1.04-5.25-1.88-9.66-1.88-10.63 0-17.56 6.61-17.56 17.56 0 11.08 6.67 17.63 16.85 17.63 3.69 0 6.22-.52 7.52-1.17v-13.03h-8.88v-4.54h14.39v21.01z" />
    </g>
</svg>
