<svg id="movi--site" xmlns="http://www.w3.org/2000/svg" viewBox="0 100 1100 700">
    <style>
        .st3 {
            fill: #f9f9f9
        }

    </style>
    <g id="all-group"><text transform="matrix(.9256 0 0 1 685.121 332.267)" font-size="85.109" font-family="Roboto-Bold" fill="#6dc0ec">majic</text>
        <g id="movi-group">
            <path class="st3" d="M351.1 250.5l.7 9.4c6-7.3 14.1-11 24.2-11 10.9 0 18.3 4.3 22.4 12.9 5.9-8.6 14.4-12.9 25.3-12.9 9.1 0 16 2.7 20.4 8 4.5 5.3 6.7 13.4 6.7 24.1v53.9h-22.6v-53.8c0-4.8-.9-8.3-2.8-10.5-1.9-2.2-5.2-3.3-9.9-3.3-6.8 0-11.4 3.2-14 9.7l.1 57.9h-22.5v-53.7c0-4.9-1-8.4-2.9-10.6-1.9-2.2-5.2-3.3-9.8-3.3-6.4 0-11 2.6-13.9 7.9v59.7H330v-84.4h21.1zM464.7 291.9c0-8.4 1.6-15.8 4.8-22.4s7.9-11.6 13.9-15.2c6.1-3.6 13.1-5.4 21.1-5.4 11.4 0 20.7 3.5 27.9 10.4s11.2 16.4 12 28.4l.2 5.8c0 13-3.6 23.3-10.8 31.1-7.2 7.8-16.9 11.7-29.1 11.7s-21.9-3.9-29.1-11.7-10.9-18.4-10.9-31.8v-.9zm22.6 1.6c0 8 1.5 14.1 4.5 18.4 3 4.2 7.3 6.4 13 6.4 5.5 0 9.7-2.1 12.8-6.3s4.6-10.9 4.6-20.1c0-7.9-1.5-14-4.6-18.3-3.1-4.3-7.4-6.5-13-6.5-5.5 0-9.8 2.2-12.8 6.4-3 4.4-4.5 11-4.5 20zM589 307.4l15.7-56.9h23.5l-28.5 84.4h-21.5l-28.5-84.4h23.5l15.8 56.9zM664.5 334.9h-23.4v-84.6h23.4v84.6z" />
        </g>
        <circle id="circle" cx="653.2" cy="199" r="21.2" fill="#f9f9f9" stroke="#115d7f" stroke-miterlimit="10" />
    </g>
</svg>
